# xmcd
#
# Track frame offsets:
# 150
# 17445
# 54755
# 72290
# 92387
# 110443
# 124657
# 171082
# 193960
#
# Disc length: 2856 seconds
#
#
# Revision: 0
# Processed by: cddbd v1.5.2PL0 Copyright (c) Steve Scherf et al.
# Submitted via: FreeRIP 2.945 
#
DISCID=6b0b2609
DTITLE=Connie Lush and Blues Shouter - Connie Lush and Blues Shouter - Live At The Cavern Club
DYEAR=2006
DGENRE=Blues
TTITLE0=Blues Is My Business
TTITLE1=Love Me Like A Man
TTITLE2=It Hurts Me Too
TTITLE3=24hr Blues
TTITLE4=Send Me No Flowers
TTITLE5=Nobody's Fault But Mine
TTITLE6=Feeling Good
TTITLE7=Higher Ground
TTITLE8=Autumn Leaves
EXTD=
EXTT0=
EXTT1=
EXTT2=
EXTT3=
EXTT4=
EXTT5=
EXTT6=
EXTT7=
EXTT8=
PLAYORDER=
